<mxfile host="app.diagrams.net" modified="2024-07-10T05:55:30.532Z" agent="Mozilla/5.0 (Windows NT 10.0; Win64; x64) AppleWebKit/537.36 (KHTML, like Gecko) Chrome/126.0.0.0 Safari/537.36" etag="4LNuyUaThTDjKE1d9dbH" version="24.6.4" type="device">
  <diagram name="Page-1" id="tl2UhNhua-255VrZ4Xo6">
    <mxGraphModel dx="1900" dy="583" grid="1" gridSize="10" guides="1" tooltips="1" connect="1" arrows="1" fold="1" page="1" pageScale="1" pageWidth="850" pageHeight="1100" math="0" shadow="0">
      <root>
        <mxCell id="0" />
        <mxCell id="1" parent="0" />
        <mxCell id="908_WE_SAFHPH_QXP2XA-1" value="" style="rounded=0;whiteSpace=wrap;html=1;fillColor=#dae8fc;strokeColor=#6c8ebf;" vertex="1" parent="1">
          <mxGeometry x="240" y="80" width="510" height="510" as="geometry" />
        </mxCell>
        <mxCell id="908_WE_SAFHPH_QXP2XA-6" style="edgeStyle=orthogonalEdgeStyle;rounded=0;orthogonalLoop=1;jettySize=auto;html=1;" edge="1" parent="1" source="908_WE_SAFHPH_QXP2XA-2" target="908_WE_SAFHPH_QXP2XA-3">
          <mxGeometry relative="1" as="geometry" />
        </mxCell>
        <mxCell id="908_WE_SAFHPH_QXP2XA-7" style="edgeStyle=orthogonalEdgeStyle;rounded=0;orthogonalLoop=1;jettySize=auto;html=1;" edge="1" parent="1" source="908_WE_SAFHPH_QXP2XA-2" target="908_WE_SAFHPH_QXP2XA-4">
          <mxGeometry relative="1" as="geometry" />
        </mxCell>
        <mxCell id="908_WE_SAFHPH_QXP2XA-2" value="Amazon EKS" style="sketch=0;outlineConnect=0;fontColor=#232F3E;gradientColor=none;strokeColor=#ffffff;fillColor=#232F3E;dashed=0;verticalLabelPosition=middle;verticalAlign=bottom;align=center;html=1;whiteSpace=wrap;fontSize=10;fontStyle=1;spacing=3;shape=mxgraph.aws4.productIcon;prIcon=mxgraph.aws4.eks;" vertex="1" parent="1">
          <mxGeometry x="280" y="140" width="80" height="100" as="geometry" />
        </mxCell>
        <mxCell id="908_WE_SAFHPH_QXP2XA-3" value="" style="outlineConnect=0;dashed=0;verticalLabelPosition=bottom;verticalAlign=top;align=center;html=1;shape=mxgraph.aws3.ec2;fillColor=#F58534;gradientColor=none;" vertex="1" parent="1">
          <mxGeometry x="530" y="90" width="50" height="60" as="geometry" />
        </mxCell>
        <mxCell id="908_WE_SAFHPH_QXP2XA-4" value="" style="outlineConnect=0;dashed=0;verticalLabelPosition=bottom;verticalAlign=top;align=center;html=1;shape=mxgraph.aws3.ec2;fillColor=#F58534;gradientColor=none;" vertex="1" parent="1">
          <mxGeometry x="530" y="160" width="50" height="60" as="geometry" />
        </mxCell>
        <mxCell id="908_WE_SAFHPH_QXP2XA-5" value="" style="outlineConnect=0;dashed=0;verticalLabelPosition=bottom;verticalAlign=top;align=center;html=1;shape=mxgraph.aws3.ec2;fillColor=#F58534;gradientColor=none;" vertex="1" parent="1">
          <mxGeometry x="530" y="240" width="50" height="60" as="geometry" />
        </mxCell>
        <mxCell id="908_WE_SAFHPH_QXP2XA-8" style="edgeStyle=orthogonalEdgeStyle;rounded=0;orthogonalLoop=1;jettySize=auto;html=1;entryX=0;entryY=0.5;entryDx=0;entryDy=0;entryPerimeter=0;" edge="1" parent="1" source="908_WE_SAFHPH_QXP2XA-2" target="908_WE_SAFHPH_QXP2XA-5">
          <mxGeometry relative="1" as="geometry" />
        </mxCell>
        <mxCell id="908_WE_SAFHPH_QXP2XA-16" style="edgeStyle=orthogonalEdgeStyle;rounded=0;orthogonalLoop=1;jettySize=auto;html=1;entryX=0;entryY=0.5;entryDx=0;entryDy=0;" edge="1" parent="1" source="908_WE_SAFHPH_QXP2XA-9" target="908_WE_SAFHPH_QXP2XA-11">
          <mxGeometry relative="1" as="geometry" />
        </mxCell>
        <mxCell id="908_WE_SAFHPH_QXP2XA-33" style="edgeStyle=orthogonalEdgeStyle;rounded=0;orthogonalLoop=1;jettySize=auto;html=1;" edge="1" parent="1" source="908_WE_SAFHPH_QXP2XA-9" target="908_WE_SAFHPH_QXP2XA-27">
          <mxGeometry relative="1" as="geometry" />
        </mxCell>
        <mxCell id="908_WE_SAFHPH_QXP2XA-9" value="" style="outlineConnect=0;dashed=0;verticalLabelPosition=bottom;verticalAlign=top;align=center;html=1;shape=mxgraph.aws3.classic_load_balancer;fillColor=#F58534;gradientColor=none;" vertex="1" parent="1">
          <mxGeometry x="30" y="420" width="69" height="72" as="geometry" />
        </mxCell>
        <mxCell id="908_WE_SAFHPH_QXP2XA-14" style="edgeStyle=orthogonalEdgeStyle;rounded=0;orthogonalLoop=1;jettySize=auto;html=1;entryX=0;entryY=0.5;entryDx=0;entryDy=0;" edge="1" parent="1" source="908_WE_SAFHPH_QXP2XA-11" target="908_WE_SAFHPH_QXP2XA-12">
          <mxGeometry relative="1" as="geometry" />
        </mxCell>
        <mxCell id="908_WE_SAFHPH_QXP2XA-11" value="&lt;b&gt;ingress&lt;/b&gt;" style="rounded=1;whiteSpace=wrap;html=1;fillColor=#d5e8d4;strokeColor=#82b366;" vertex="1" parent="1">
          <mxGeometry x="310" y="330" width="115" height="50" as="geometry" />
        </mxCell>
        <mxCell id="908_WE_SAFHPH_QXP2XA-15" style="edgeStyle=orthogonalEdgeStyle;rounded=0;orthogonalLoop=1;jettySize=auto;html=1;entryX=0;entryY=0.5;entryDx=0;entryDy=0;" edge="1" parent="1" source="908_WE_SAFHPH_QXP2XA-12" target="908_WE_SAFHPH_QXP2XA-13">
          <mxGeometry relative="1" as="geometry" />
        </mxCell>
        <mxCell id="908_WE_SAFHPH_QXP2XA-12" value="&lt;b&gt;Service&lt;/b&gt;" style="whiteSpace=wrap;html=1;aspect=fixed;fillColor=#ffe6cc;strokeColor=#d79b00;" vertex="1" parent="1">
          <mxGeometry x="470" y="315" width="80" height="80" as="geometry" />
        </mxCell>
        <mxCell id="908_WE_SAFHPH_QXP2XA-13" value="&lt;b&gt;Pod&lt;/b&gt;" style="ellipse;whiteSpace=wrap;html=1;aspect=fixed;fillColor=#f8cecc;strokeColor=#b85450;" vertex="1" parent="1">
          <mxGeometry x="620" y="315" width="80" height="80" as="geometry" />
        </mxCell>
        <mxCell id="908_WE_SAFHPH_QXP2XA-20" style="edgeStyle=orthogonalEdgeStyle;rounded=0;orthogonalLoop=1;jettySize=auto;html=1;" edge="1" parent="1" source="908_WE_SAFHPH_QXP2XA-17" target="908_WE_SAFHPH_QXP2XA-18">
          <mxGeometry relative="1" as="geometry" />
        </mxCell>
        <mxCell id="908_WE_SAFHPH_QXP2XA-17" value="" style="html=1;verticalLabelPosition=bottom;align=center;labelBackgroundColor=#ffffff;verticalAlign=top;strokeWidth=2;strokeColor=#0080F0;shadow=0;dashed=0;shape=mxgraph.ios7.icons.user;" vertex="1" parent="1">
          <mxGeometry x="-300" y="404" width="90" height="110" as="geometry" />
        </mxCell>
        <mxCell id="908_WE_SAFHPH_QXP2XA-21" style="edgeStyle=orthogonalEdgeStyle;rounded=0;orthogonalLoop=1;jettySize=auto;html=1;" edge="1" parent="1" source="908_WE_SAFHPH_QXP2XA-18" target="908_WE_SAFHPH_QXP2XA-9">
          <mxGeometry relative="1" as="geometry">
            <Array as="points">
              <mxPoint x="10" y="459" />
              <mxPoint x="10" y="459" />
            </Array>
          </mxGeometry>
        </mxCell>
        <mxCell id="908_WE_SAFHPH_QXP2XA-18" value="" style="sketch=0;points=[[0,0,0],[0.25,0,0],[0.5,0,0],[0.75,0,0],[1,0,0],[0,1,0],[0.25,1,0],[0.5,1,0],[0.75,1,0],[1,1,0],[0,0.25,0],[0,0.5,0],[0,0.75,0],[1,0.25,0],[1,0.5,0],[1,0.75,0]];outlineConnect=0;fontColor=#232F3E;fillColor=#8C4FFF;strokeColor=#ffffff;dashed=0;verticalLabelPosition=bottom;verticalAlign=top;align=center;html=1;fontSize=12;fontStyle=0;aspect=fixed;shape=mxgraph.aws4.resourceIcon;resIcon=mxgraph.aws4.route_53;" vertex="1" parent="1">
          <mxGeometry x="-130" y="420" width="78" height="78" as="geometry" />
        </mxCell>
        <mxCell id="908_WE_SAFHPH_QXP2XA-19" value="&lt;b&gt;*.daws78s.online&lt;/b&gt;" style="text;html=1;align=center;verticalAlign=middle;resizable=0;points=[];autosize=1;strokeColor=none;fillColor=none;" vertex="1" parent="1">
          <mxGeometry x="-151" y="514" width="120" height="30" as="geometry" />
        </mxCell>
        <mxCell id="908_WE_SAFHPH_QXP2XA-23" value="&lt;b&gt;app1.daws78s.online&lt;/b&gt;" style="text;html=1;align=center;verticalAlign=middle;resizable=0;points=[];autosize=1;strokeColor=none;fillColor=none;" vertex="1" parent="1">
          <mxGeometry x="99" y="420" width="140" height="30" as="geometry" />
        </mxCell>
        <mxCell id="908_WE_SAFHPH_QXP2XA-24" value="&lt;b&gt;app1&lt;/b&gt;" style="text;html=1;align=center;verticalAlign=middle;resizable=0;points=[];autosize=1;strokeColor=none;fillColor=none;" vertex="1" parent="1">
          <mxGeometry x="350" y="380" width="50" height="30" as="geometry" />
        </mxCell>
        <mxCell id="908_WE_SAFHPH_QXP2XA-25" value="&lt;b&gt;app1&lt;/b&gt;" style="text;html=1;align=center;verticalAlign=middle;resizable=0;points=[];autosize=1;strokeColor=none;fillColor=none;" vertex="1" parent="1">
          <mxGeometry x="480" y="390" width="50" height="30" as="geometry" />
        </mxCell>
        <mxCell id="908_WE_SAFHPH_QXP2XA-26" value="&lt;b&gt;app1&lt;/b&gt;" style="text;html=1;align=center;verticalAlign=middle;resizable=0;points=[];autosize=1;strokeColor=none;fillColor=none;" vertex="1" parent="1">
          <mxGeometry x="635" y="395" width="50" height="30" as="geometry" />
        </mxCell>
        <mxCell id="908_WE_SAFHPH_QXP2XA-31" style="edgeStyle=orthogonalEdgeStyle;rounded=0;orthogonalLoop=1;jettySize=auto;html=1;entryX=0;entryY=0.5;entryDx=0;entryDy=0;" edge="1" parent="1" source="908_WE_SAFHPH_QXP2XA-27" target="908_WE_SAFHPH_QXP2XA-29">
          <mxGeometry relative="1" as="geometry" />
        </mxCell>
        <mxCell id="908_WE_SAFHPH_QXP2XA-27" value="&lt;b&gt;ingress&lt;/b&gt;" style="rounded=1;whiteSpace=wrap;html=1;fillColor=#d5e8d4;strokeColor=#82b366;" vertex="1" parent="1">
          <mxGeometry x="310" y="485" width="115" height="50" as="geometry" />
        </mxCell>
        <mxCell id="908_WE_SAFHPH_QXP2XA-32" style="edgeStyle=orthogonalEdgeStyle;rounded=0;orthogonalLoop=1;jettySize=auto;html=1;entryX=0;entryY=0.5;entryDx=0;entryDy=0;" edge="1" parent="1" source="908_WE_SAFHPH_QXP2XA-29" target="908_WE_SAFHPH_QXP2XA-30">
          <mxGeometry relative="1" as="geometry" />
        </mxCell>
        <mxCell id="908_WE_SAFHPH_QXP2XA-29" value="&lt;b&gt;Service&lt;/b&gt;" style="whiteSpace=wrap;html=1;aspect=fixed;fillColor=#ffe6cc;strokeColor=#d79b00;" vertex="1" parent="1">
          <mxGeometry x="470" y="470" width="80" height="80" as="geometry" />
        </mxCell>
        <mxCell id="908_WE_SAFHPH_QXP2XA-30" value="&lt;b&gt;Pod&lt;/b&gt;" style="ellipse;whiteSpace=wrap;html=1;aspect=fixed;fillColor=#f8cecc;strokeColor=#b85450;" vertex="1" parent="1">
          <mxGeometry x="620" y="470" width="80" height="80" as="geometry" />
        </mxCell>
        <mxCell id="908_WE_SAFHPH_QXP2XA-34" value="&lt;b&gt;app2.daws78s.online&lt;/b&gt;" style="text;html=1;align=center;verticalAlign=middle;resizable=0;points=[];autosize=1;strokeColor=none;fillColor=none;" vertex="1" parent="1">
          <mxGeometry x="100" y="514" width="140" height="30" as="geometry" />
        </mxCell>
        <mxCell id="908_WE_SAFHPH_QXP2XA-35" value="&lt;b&gt;app2&lt;/b&gt;" style="text;html=1;align=center;verticalAlign=middle;resizable=0;points=[];autosize=1;strokeColor=none;fillColor=none;" vertex="1" parent="1">
          <mxGeometry x="350" y="535" width="50" height="30" as="geometry" />
        </mxCell>
        <mxCell id="908_WE_SAFHPH_QXP2XA-36" value="&lt;b&gt;app2&lt;/b&gt;" style="text;html=1;align=center;verticalAlign=middle;resizable=0;points=[];autosize=1;strokeColor=none;fillColor=none;" vertex="1" parent="1">
          <mxGeometry x="490" y="550" width="50" height="30" as="geometry" />
        </mxCell>
        <mxCell id="908_WE_SAFHPH_QXP2XA-37" value="&lt;b&gt;app2&lt;/b&gt;" style="text;html=1;align=center;verticalAlign=middle;resizable=0;points=[];autosize=1;strokeColor=none;fillColor=none;" vertex="1" parent="1">
          <mxGeometry x="635" y="550" width="50" height="30" as="geometry" />
        </mxCell>
      </root>
    </mxGraphModel>
  </diagram>
</mxfile>
